<svg width="37" height="64" viewBox="0 0 37 64" fill="none" xmlns="http://www.w3.org/2000/svg">
<path d="M17.2262 0.464233C17.8451 -0.15468 18.8485 -0.15468 19.4674 0.464233L22.2535 3.24939L20.5573 3.83728C19.6885 4.13807 19.2536 4.288 18.9762 4.66443C18.9642 4.68071 18.9524 4.69752 18.941 4.71423C18.6778 5.10064 18.6774 5.56322 18.6774 6.48767C18.6774 7.41181 18.6779 7.87393 18.941 8.06873C18.9524 8.07713 18.9642 8.0856 18.9762 8.09314C19.2536 8.26764 19.6885 8.10151 20.5573 7.7699L25.0563 6.05212L25.6315 6.62732C26.6184 7.61427 27.5373 8.64388 28.3922 9.7074L20.5573 12.4203C19.6885 12.7211 19.2536 12.872 18.9762 13.2484C18.9642 13.2647 18.9524 13.2815 18.941 13.2982C18.6778 13.6846 18.6774 14.1472 18.6774 15.0717C18.6774 15.9958 18.6779 16.4579 18.941 16.6527C18.9524 16.6611 18.9642 16.6696 18.9762 16.6771C19.2536 16.8516 19.6885 16.6855 20.5573 16.3539L30.4791 12.5658C31.3703 13.9168 32.1644 15.3129 32.8639 16.7435L20.5573 21.0043C19.6885 21.3051 19.2536 21.456 18.9762 21.8324C18.9642 21.8486 18.9524 21.8655 18.941 21.8822C18.6778 22.2686 18.6774 22.7313 18.6774 23.6556C18.6774 24.5798 18.6779 25.0419 18.941 25.2367C18.9524 25.2451 18.9642 25.2536 18.9762 25.2611C19.2536 25.4356 19.6885 25.2695 20.5573 24.9379L34.1705 19.7416C34.7547 21.2588 35.2386 22.8055 35.6198 24.3724L20.5573 29.5883C19.6885 29.889 19.2536 30.04 18.9762 30.4164C18.9642 30.4326 18.9524 30.4495 18.941 30.4662C18.6779 30.8526 18.6774 31.3153 18.6774 32.2396C18.6774 33.1637 18.6778 33.6259 18.941 33.8207C18.9525 33.8291 18.9642 33.8375 18.9762 33.8451C19.2536 34.0196 19.6885 33.8535 20.5573 33.5219L35.9059 27.6635C36.0314 27.6155 36.1434 27.5716 36.2448 27.5316C36.5054 29.2163 36.6529 30.9149 36.6852 32.6156C36.4965 32.6541 36.2505 32.7385 35.9059 32.8578L20.5573 38.1722C19.6885 38.473 19.2536 38.6239 18.9762 39.0004C18.9643 39.0165 18.9523 39.0326 18.941 39.0492C18.6776 39.4356 18.6774 39.8983 18.6774 40.8226C18.6774 41.7471 18.6777 42.2099 18.941 42.4047C18.9525 42.4131 18.9642 42.4215 18.9762 42.4291C19.2536 42.6035 19.6885 42.4374 20.5573 42.1058L35.9059 36.2474C36.2025 36.1342 36.4254 36.0478 36.6022 35.9633C36.474 37.8132 36.2105 39.6555 35.8112 41.474L20.5573 46.7562C19.6885 47.057 19.2536 47.2079 18.9762 47.5844C18.9643 47.6005 18.9523 47.6166 18.941 47.6332C18.6776 48.0196 18.6774 48.4822 18.6774 49.4066C18.6774 50.3311 18.6777 50.7939 18.941 50.9886C18.9525 50.9971 18.9642 51.0055 18.9762 51.0131C19.2536 51.1875 19.6886 51.0214 20.5573 50.6898L34.7662 45.266C34.0765 47.3438 33.2007 49.3726 32.1403 51.3285L20.5573 55.3402C19.6885 55.641 19.2536 55.7919 18.9762 56.1683C18.9643 56.1845 18.9523 56.2006 18.941 56.2172C18.6776 56.6036 18.6774 57.0661 18.6774 57.9906C18.6774 58.9152 18.6777 59.3779 18.941 59.5726C18.9523 59.581 18.9643 59.5886 18.9762 59.5961C19.2536 59.7706 19.6885 59.6054 20.5573 59.2738L29.1442 55.9945C28.0839 57.405 26.9152 58.7606 25.6315 60.0443C21.6085 64.0672 15.0861 64.0672 11.0631 60.0443C-3.68767 45.2935 -3.68767 21.3781 11.0631 6.62732L17.2262 0.464233Z" fill="white"/>
    <style>
        path { fill: oklch(0.723 0.219 140); }
    </style>
</svg>
